<svg width="279" height="286" viewBox="0 0 279 286" fill="none" xmlns="http://www.w3.org/2000/svg">
<g opacity="0.400065">
<mask id="path-1-inside-1_45_45" fill="white">
<path fill-rule="evenodd" clip-rule="evenodd" d="M20.9413 152.079C26.4964 132.706 46.6501 121.487 65.9543 127.023C85.2586 132.558 96.4051 152.752 90.8499 172.125C85.2948 191.498 65.1411 202.716 45.8369 197.181C26.5326 191.645 15.3861 171.452 20.9413 152.079Z"/>
</mask>
<path d="M205.504 205.001C234.732 103.07 175.795 -3.25521 73.8636 -32.4834C-28.0673 -61.7116 -134.393 -2.77446 -163.621 99.1564C-192.849 201.087 -133.912 307.413 -31.9811 336.641C69.9498 365.869 176.275 306.932 205.504 205.001ZM55.5467 162.002C55.5715 161.915 55.5934 161.87 55.6036 161.85C55.6148 161.829 55.6258 161.812 55.6383 161.797C55.6667 161.761 55.7206 161.71 55.801 161.665C55.8814 161.621 55.9365 161.611 55.9458 161.61C55.9481 161.61 55.9468 161.61 55.947 161.61C55.9482 161.61 55.954 161.61 55.9657 161.612C55.9772 161.615 55.9988 161.619 56.0314 161.628L75.8773 92.4174C37.345 81.3685 -2.66205 103.787 -13.6642 142.156L55.5467 162.002ZM56.0314 161.628C56.064 161.638 56.0846 161.645 56.0955 161.65C56.1065 161.654 56.1117 161.657 56.1127 161.657C56.1129 161.657 56.1119 161.657 56.1137 161.658C56.121 161.664 56.1626 161.701 56.2071 161.782C56.2516 161.862 56.2701 161.934 56.2755 161.979C56.2779 161.999 56.2785 162.019 56.2766 162.043C56.2749 162.065 56.2693 162.115 56.2445 162.202L125.455 182.048C136.457 143.679 114.41 103.466 75.8773 92.4174L56.0314 161.628ZM56.2445 162.202C56.2197 162.288 56.1977 162.334 56.1876 162.354C56.1764 162.375 56.1654 162.391 56.1529 162.407C56.1245 162.442 56.0706 162.493 55.9902 162.538C55.9098 162.583 55.8547 162.593 55.8454 162.594C55.8431 162.594 55.8444 162.594 55.8441 162.594C55.843 162.594 55.8372 162.593 55.8255 162.591C55.814 162.589 55.7924 162.585 55.7598 162.575L35.9139 231.786C74.4462 242.835 114.453 220.417 125.455 182.048L56.2445 162.202ZM55.7598 162.575C55.7272 162.566 55.7066 162.558 55.6957 162.554C55.6847 162.55 55.6795 162.547 55.6785 162.546C55.6782 162.546 55.6793 162.547 55.6775 162.546C55.6702 162.54 55.6286 162.502 55.5841 162.422C55.5396 162.341 55.5211 162.269 55.5157 162.224C55.5133 162.204 55.5127 162.185 55.5146 162.161C55.5163 162.139 55.5219 162.088 55.5467 162.002L-13.6642 142.156C-24.6663 180.525 -2.61837 220.737 35.9139 231.786L55.7598 162.575Z" fill="#231F20" mask="url(#path-1-inside-1_45_45)"/>
<path fill-rule="evenodd" clip-rule="evenodd" d="M43.5227 81.7371L81.4167 243.446L199.247 126.39L43.5227 81.7371Z" fill="#C5CEBD"/>
<mask id="path-4-inside-2_45_45" fill="white">
<path fill-rule="evenodd" clip-rule="evenodd" d="M43.088 80.953L43.3414 82.0659L80.578 245.629L80.8408 246.783L81.6752 245.943L199.93 126.967L200.735 126.158L199.638 125.843L44.1852 81.2676L43.088 80.953ZM44.4386 82.3806L81.4125 244.789L198.833 126.652L44.4386 82.3806Z"/>
</mask>
<path d="M43.3414 82.0659L42.3663 82.2879L42.3663 82.2879L43.3414 82.0659ZM43.088 80.953L43.3637 79.9917L41.7374 79.5254L42.113 81.1749L43.088 80.953ZM80.578 245.629L81.5531 245.407L81.5531 245.407L80.578 245.629ZM80.8408 246.783L79.8657 247.005L80.2691 248.777L81.55 247.488L80.8408 246.783ZM81.6752 245.943L80.966 245.239L80.966 245.239L81.6752 245.943ZM199.93 126.967L199.221 126.262L199.93 126.967ZM200.735 126.158L201.444 126.862L202.637 125.663L201.011 125.196L200.735 126.158ZM199.638 125.843L199.362 126.804L199.638 125.843ZM44.1852 81.2676L44.4609 80.3063L44.1852 81.2676ZM81.4125 244.789L80.4374 245.011L80.8408 246.783L82.1217 245.494L81.4125 244.789ZM44.4386 82.3806L44.7143 81.4193L43.088 80.953L43.4636 82.6025L44.4386 82.3806ZM198.833 126.652L199.542 127.357L200.735 126.158L199.109 125.691L198.833 126.652ZM44.3164 81.844L44.0631 80.731L42.113 81.1749L42.3663 82.2879L44.3164 81.844ZM81.5531 245.407L44.3165 81.8439L42.3663 82.2879L79.603 245.851L81.5531 245.407ZM81.8158 246.561L81.5531 245.407L79.603 245.851L79.8657 247.005L81.8158 246.561ZM80.966 245.239L80.1315 246.078L81.55 247.488L82.3845 246.648L80.966 245.239ZM199.221 126.262L80.966 245.239L82.3845 246.648L200.64 127.672L199.221 126.262ZM200.026 125.453L199.221 126.262L200.64 127.672L201.444 126.862L200.026 125.453ZM199.362 126.804L200.459 127.119L201.011 125.196L199.913 124.882L199.362 126.804ZM43.9096 82.2289L199.362 126.804L199.913 124.882L44.4609 80.3063L43.9096 82.2289ZM42.8124 81.9142L43.9096 82.2289L44.4609 80.3063L43.3637 79.9917L42.8124 81.9142ZM82.3875 244.567L45.4137 82.1586L43.4636 82.6025L80.4374 245.011L82.3875 244.567ZM198.124 125.947L80.7032 244.084L82.1217 245.494L199.542 127.357L198.124 125.947ZM44.163 83.3418L198.557 127.614L199.109 125.691L44.7143 81.4193L44.163 83.3418Z" fill="#231F20" mask="url(#path-4-inside-2_45_45)"/>
<path fill-rule="evenodd" clip-rule="evenodd" d="M21.5771 151.982C16.1772 170.814 27.4973 190.632 46.9341 196.205C66.3709 201.779 86.4729 190.971 91.8728 172.139C97.2728 153.307 85.9526 133.489 66.5158 127.915C47.079 122.342 26.977 133.15 21.5771 151.982ZM46.6585 197.166C26.7165 191.448 15.0564 171.094 20.6158 151.706C26.1753 132.318 46.8495 121.236 66.7915 126.954C86.7335 132.672 98.3935 153.026 92.8341 172.414C87.2747 191.802 66.6004 202.885 46.6585 197.166Z" fill="#231F20"/>
<path d="M212.925 264.18L212.475 264.429L66.9703 1.93207L67.4203 1.68265L212.925 264.18Z" stroke="#231F20"/>
<path fill-rule="evenodd" clip-rule="evenodd" d="M152.882 215.793C149.888 214.934 146.957 216.499 146.216 219.083C145.475 221.666 147.131 224.547 150.126 225.405C153.118 226.263 156.049 224.698 156.79 222.115C157.531 219.531 155.875 216.651 152.882 215.793ZM153.158 214.831C149.706 213.842 146.168 215.622 145.255 218.807C144.341 221.993 146.399 225.377 149.85 226.367C153.3 227.356 156.838 225.576 157.751 222.39C158.665 219.205 156.608 215.821 153.158 214.831Z" fill="#231F20"/>
<mask id="path-9-inside-3_45_45" fill="white">
<path fill-rule="evenodd" clip-rule="evenodd" d="M124.449 104.291L159.268 167.33L200.389 126.066L124.449 104.291ZM127.541 106.755L197.504 126.817L159.619 164.834L127.541 106.755Z"/>
</mask>
<path d="M159.268 167.33L158.393 167.813L159.037 168.979L159.976 168.036L159.268 167.33ZM124.449 104.291L124.725 103.329L122.409 102.665L123.574 104.774L124.449 104.291ZM200.389 126.066L201.097 126.772L202.293 125.572L200.665 125.105L200.389 126.066ZM197.504 126.817L198.213 127.523L199.409 126.323L197.78 125.856L197.504 126.817ZM127.541 106.755L127.816 105.794L125.501 105.13L126.665 107.238L127.541 106.755ZM159.619 164.834L158.744 165.317L159.388 166.483L160.328 165.539L159.619 164.834ZM160.143 166.847L125.325 103.807L123.574 104.774L158.393 167.813L160.143 166.847ZM199.681 125.36L158.56 166.624L159.976 168.036L201.097 126.772L199.681 125.36ZM124.174 105.252L200.113 127.027L200.665 125.105L124.725 103.329L124.174 105.252ZM197.78 125.856L127.816 105.794L127.265 107.716L197.229 127.778L197.78 125.856ZM160.328 165.539L198.213 127.523L196.796 126.111L158.911 164.128L160.328 165.539ZM126.665 107.238L158.744 165.317L160.495 164.35L128.416 106.272L126.665 107.238Z" fill="#231F20" mask="url(#path-9-inside-3_45_45)"/>
<path d="M227.247 221.053L226.744 220.852L242.669 181.789L242.874 181.287L242.356 181.124L204.8 169.3L234.332 138.009L234.641 137.682L234.348 137.341L204.849 102.953L205.245 102.634L235.34 137.716L206.288 168.498L205.74 169.079L206.501 169.318L243.579 180.991L227.247 221.053Z" stroke="#231F20"/>
<mask id="path-12-inside-4_45_45" fill="white">
<path fill-rule="evenodd" clip-rule="evenodd" d="M150.507 68.0539C152.943 59.5598 161.588 54.5865 169.816 56.9459C178.046 59.3058 182.742 68.1046 180.306 76.5987C177.87 85.0928 169.225 90.0661 160.996 87.7063C152.767 85.3469 148.071 76.548 150.507 68.0539Z"/>
</mask>
<path d="M165.887 72.4641C165.915 72.3668 165.945 72.3275 165.954 72.3153C165.97 72.2951 165.98 72.2918 165.968 72.2987C165.955 72.3058 165.897 72.3364 165.783 72.3516C165.655 72.3686 165.516 72.3576 165.406 72.3261L174.226 41.5657C157.046 36.6395 139.865 47.1201 135.127 63.6437L165.887 72.4641ZM165.406 72.3261C165.297 72.2948 165.173 72.2304 165.074 72.1485C164.985 72.0753 164.952 72.0185 164.945 72.006C164.939 71.9937 164.945 72.0014 164.948 72.0269C164.95 72.0423 164.954 72.0911 164.926 72.1885L195.686 81.0089C200.425 64.4842 191.406 46.4921 174.226 41.5657L165.406 72.3261ZM164.926 72.1885C164.898 72.2859 164.868 72.3251 164.859 72.3372C164.843 72.3573 164.834 72.3605 164.846 72.3536C164.858 72.3465 164.916 72.316 165.03 72.3008C165.158 72.2838 165.297 72.2948 165.406 72.3261L156.585 103.086C173.766 108.013 190.948 97.5336 195.686 81.0089L164.926 72.1885ZM165.406 72.3261C165.516 72.3576 165.64 72.4223 165.739 72.5044C165.828 72.5778 165.861 72.6346 165.868 72.6471C165.874 72.6593 165.868 72.6515 165.865 72.6259C165.863 72.6104 165.859 72.5615 165.887 72.4641L135.127 63.6437C130.389 80.1674 139.406 98.1602 156.585 103.086L165.406 72.3261Z" fill="#231F20" mask="url(#path-12-inside-4_45_45)"/>
</g>
</svg>
