<svg width="268" height="254" viewBox="0 0 268 254" fill="none" xmlns="http://www.w3.org/2000/svg">
<g opacity="0.39967">
<mask id="mask0_0_7" style="mask-type:luminance" maskUnits="userSpaceOnUse" x="70" y="6" width="102" height="141">
<path fill-rule="evenodd" clip-rule="evenodd" d="M83.7509 6.20183L70.8458 15.3062L162.906 146.5L171.046 130.618L83.7509 6.20183Z" fill="white"/>
</mask>
<g mask="url(#mask0_0_7)">
<path fill-rule="evenodd" clip-rule="evenodd" d="M57.6699 123.082C58.141 122.739 58.6429 122.43 59.0805 122.049C103.995 82.9023 148.905 43.751 193.818 4.60145C194.183 4.28463 194.578 4.00167 194.958 3.7041L194.39 11.8276C193.958 12.1337 193.496 12.4059 193.1 12.7524C154.881 46.0624 116.67 79.3821 78.4517 112.692C71.35 118.88 64.219 125.035 57.1019 131.205L57.6699 123.082Z" fill="#231F20"/>
</g>
<mask id="mask1_0_7" style="mask-type:luminance" maskUnits="userSpaceOnUse" x="70" y="6" width="102" height="141">
<path fill-rule="evenodd" clip-rule="evenodd" d="M83.7509 6.20183L70.8458 15.3062L162.906 146.5L171.046 130.618L83.7509 6.20183Z" fill="white"/>
</mask>
<g mask="url(#mask1_0_7)">
<path fill-rule="evenodd" clip-rule="evenodd" d="M56.5338 139.329C57.0868 138.916 57.6707 138.537 58.1903 138.084C102.982 99.0445 147.77 59.9982 192.56 20.9551C192.965 20.6017 193.4 20.2852 193.822 19.9512L193.254 28.0747C192.699 28.4873 192.115 28.8676 191.596 29.3206C146.844 68.3239 102.096 107.334 57.3471 146.34C56.9016 146.729 56.4267 147.082 55.9658 147.452L56.5338 139.329Z" fill="#231F20"/>
</g>
<mask id="mask2_0_7" style="mask-type:luminance" maskUnits="userSpaceOnUse" x="70" y="6" width="102" height="141">
<path fill-rule="evenodd" clip-rule="evenodd" d="M83.7509 6.20183L70.8458 15.3062L162.906 146.5L171.046 130.618L83.7509 6.20183Z" fill="white"/>
</mask>
<g mask="url(#mask2_0_7)">
<path fill-rule="evenodd" clip-rule="evenodd" d="M55.3977 155.575C55.9105 155.198 56.4527 154.854 56.9319 154.438C101.806 115.326 146.675 76.2082 191.546 37.0936C191.91 36.7767 192.305 36.4953 192.686 36.1978L192.118 44.3213C191.685 44.6274 191.224 44.8995 190.826 45.2459C152.485 78.6625 114.15 112.087 75.8085 145.502C68.8304 151.586 61.823 157.635 54.8297 163.699L55.3977 155.575Z" fill="#231F20"/>
</g>
<mask id="mask3_0_7" style="mask-type:luminance" maskUnits="userSpaceOnUse" x="70" y="6" width="102" height="141">
<path fill-rule="evenodd" clip-rule="evenodd" d="M83.7509 6.20183L70.8458 15.3062L162.906 146.5L171.046 130.618L83.7509 6.20183Z" fill="white"/>
</mask>
<g mask="url(#mask3_0_7)">
<path fill-rule="evenodd" clip-rule="evenodd" d="M54.2616 171.822C54.7744 171.445 55.318 171.103 55.7958 170.685C100.63 131.61 145.458 92.5269 190.288 53.4487C190.693 53.0954 191.127 52.7789 191.55 52.4448C191.36 55.1522 191.171 57.861 190.982 60.5684C190.427 60.981 189.843 61.3598 189.324 61.8127C144.572 100.816 99.824 139.826 55.075 178.832C54.6294 179.221 54.1545 179.575 53.6936 179.946L54.2616 171.822Z" fill="#231F20"/>
</g>
<mask id="mask4_0_7" style="mask-type:luminance" maskUnits="userSpaceOnUse" x="70" y="6" width="102" height="141">
<path fill-rule="evenodd" clip-rule="evenodd" d="M83.7509 6.20183L70.8458 15.3062L162.906 146.5L171.046 130.618L83.7509 6.20183Z" fill="white"/>
</mask>
<g mask="url(#mask4_0_7)">
<path fill-rule="evenodd" clip-rule="evenodd" d="M53.1256 188.069C53.5967 187.726 54.0986 187.418 54.5362 187.036C99.4505 147.89 144.361 108.738 189.274 69.5888C189.639 69.2719 190.033 68.989 190.414 68.6914L189.846 76.8149C189.413 77.121 188.953 77.3933 188.556 77.7397C150.336 111.05 112.127 144.37 73.9074 177.68C66.8057 183.868 59.6746 190.022 52.5576 196.193L53.1256 188.069Z" fill="#231F20"/>
</g>
<mask id="mask5_0_7" style="mask-type:luminance" maskUnits="userSpaceOnUse" x="70" y="6" width="102" height="141">
<path fill-rule="evenodd" clip-rule="evenodd" d="M83.7509 6.20183L70.8458 15.3062L162.906 146.5L171.046 130.618L83.7509 6.20183Z" fill="white"/>
</mask>
<g mask="url(#mask5_0_7)">
<path fill-rule="evenodd" clip-rule="evenodd" d="M51.9895 204.316C52.5425 203.903 53.1264 203.525 53.646 203.072C98.4381 164.032 143.226 124.986 188.015 85.9424C188.421 85.589 188.855 85.2725 189.277 84.9385L188.709 93.062C188.195 93.4396 187.653 93.7834 187.174 94.2013C143.125 132.593 99.0815 170.989 55.0424 209.391C54.6049 209.772 54.2301 210.228 53.8261 210.649L51.5578 210.491L51.9895 204.316Z" fill="#231F20"/>
</g>
<mask id="mask6_0_7" style="mask-type:luminance" maskUnits="userSpaceOnUse" x="70" y="6" width="102" height="141">
<path fill-rule="evenodd" clip-rule="evenodd" d="M83.7509 6.20183L70.8458 15.3062L162.906 146.5L171.046 130.618" fill="white"/>
</mask>
<g mask="url(#mask6_0_7)">
<path fill-rule="evenodd" clip-rule="evenodd" d="M195.525 -4.41928C194.972 -4.00654 194.388 -3.62777 193.869 -3.17482C149.117 35.8285 104.369 74.8382 59.6189 113.845C59.1733 114.233 58.6999 114.588 58.2374 114.958L58.8055 106.835C59.2781 106.492 59.78 106.183 60.2175 105.802C102.186 69.2247 144.15 32.6424 186.109 -3.94468C186.588 -4.36257 187.003 -4.85313 187.448 -5.31134C189.938 -5.13717 192.428 -4.97064 194.917 -4.77386C195.128 -4.75763 195.323 -4.54253 195.525 -4.41928Z" fill="#231F20"/>
</g>
<mask id="mask7_0_7" style="mask-type:luminance" maskUnits="userSpaceOnUse" x="70" y="6" width="102" height="141">
<path fill-rule="evenodd" clip-rule="evenodd" d="M83.7509 6.20183L70.8458 15.3062L162.906 146.5L171.046 130.618L83.7509 6.20183Z" fill="white"/>
</mask>
<g mask="url(#mask7_0_7)">
<path fill-rule="evenodd" clip-rule="evenodd" d="M61.9264 211.215C68.6867 205.286 75.4346 199.341 82.2117 193.432C117.217 162.904 152.231 132.386 187.245 101.866C187.526 101.621 187.841 101.411 188.141 101.185L187.573 109.309C187.141 109.616 186.679 109.888 186.282 110.235C147.971 143.623 109.665 177.017 71.3642 210.416C70.8863 210.834 70.4714 211.325 70.0271 211.782L61.9264 211.215Z" fill="#231F20"/>
</g>
<mask id="mask8_0_7" style="mask-type:luminance" maskUnits="userSpaceOnUse" x="70" y="6" width="102" height="141">
<path fill-rule="evenodd" clip-rule="evenodd" d="M83.7509 6.20183L70.8458 15.3062L162.906 146.5L171.046 130.618" fill="white"/>
</mask>
<g mask="url(#mask8_0_7)">
<path fill-rule="evenodd" clip-rule="evenodd" d="M179.347 -5.87744C173.035 -0.339866 166.738 5.21384 160.41 10.7321C127.116 39.7649 93.8139 68.7895 60.5134 97.8128C60.1483 98.1311 59.754 98.4125 59.3736 98.7116L59.9416 90.5881C60.3739 90.282 60.8355 90.0098 61.2313 89.6633C97.5445 58.0166 133.85 26.3648 170.154 -5.29179C170.551 -5.63816 170.884 -6.05871 171.246 -6.44389C173.946 -6.25511 176.647 -6.06622 179.347 -5.87744Z" fill="#231F20"/>
</g>
<mask id="mask9_0_7" style="mask-type:luminance" maskUnits="userSpaceOnUse" x="70" y="6" width="102" height="141">
<path fill-rule="evenodd" clip-rule="evenodd" d="M83.7509 6.20183L70.8458 15.3062L162.906 146.5L171.046 130.618L83.7509 6.20183Z" fill="white"/>
</mask>
<g mask="url(#mask9_0_7)">
<path fill-rule="evenodd" clip-rule="evenodd" d="M78.1274 212.348C78.4354 212.048 78.7293 211.734 79.0526 211.452C114.696 180.375 150.342 149.298 185.992 118.226C186.315 117.944 186.666 117.696 187.005 117.432L186.437 125.556C186.004 125.862 185.543 126.134 185.146 126.48C152.532 154.902 119.924 183.33 87.3207 211.762C86.9235 212.107 86.5903 212.529 86.2281 212.914L78.1274 212.348Z" fill="#231F20"/>
</g>
<mask id="mask10_0_7" style="mask-type:luminance" maskUnits="userSpaceOnUse" x="70" y="6" width="102" height="141">
<path fill-rule="evenodd" clip-rule="evenodd" d="M83.7509 6.20183L70.8458 15.3062L162.906 146.5L171.046 130.618" fill="white"/>
</mask>
<g mask="url(#mask10_0_7)">
<path fill-rule="evenodd" clip-rule="evenodd" d="M163.146 -7.01025C162.881 -6.74399 162.632 -6.4615 162.349 -6.21469C128.703 23.1207 95.0563 52.453 61.4066 81.7836C61.1235 82.0289 60.8098 82.2387 60.51 82.4646L61.0781 74.3411C61.5088 74.0349 61.9704 73.7627 62.3677 73.4179C92.9011 46.8096 123.429 20.1949 153.953 -6.4246C154.35 -6.77098 154.683 -7.19153 155.045 -7.57671C157.745 -7.38792 160.446 -7.19904 163.146 -7.01025Z" fill="#231F20"/>
</g>
<mask id="mask11_0_7" style="mask-type:luminance" maskUnits="userSpaceOnUse" x="70" y="6" width="102" height="141">
<path fill-rule="evenodd" clip-rule="evenodd" d="M83.7509 6.20183L70.8458 15.3062L162.906 146.5L171.046 130.618L83.7509 6.20183Z" fill="white"/>
</mask>
<g mask="url(#mask11_0_7)">
<path fill-rule="evenodd" clip-rule="evenodd" d="M94.3285 213.481C100.805 207.802 107.268 202.108 113.761 196.447C137.453 175.783 161.155 155.129 184.855 134.473C185.179 134.191 185.53 133.943 185.868 133.679C185.679 136.387 185.49 139.095 185.3 141.803C184.87 142.109 184.408 142.381 184.011 142.727C157.175 166.11 130.346 189.501 103.522 212.895C103.124 213.242 102.791 213.662 102.429 214.047L94.3285 213.481Z" fill="#231F20"/>
</g>
<mask id="mask12_0_7" style="mask-type:luminance" maskUnits="userSpaceOnUse" x="70" y="6" width="102" height="141">
<path fill-rule="evenodd" clip-rule="evenodd" d="M83.7509 6.20183L70.8458 15.3062L162.906 146.5L171.046 130.618" fill="white"/>
</mask>
<g mask="url(#mask12_0_7)">
<path fill-rule="evenodd" clip-rule="evenodd" d="M146.945 -8.14307C140.468 -2.46407 134.003 3.23095 127.511 8.89372C105.984 27.6731 84.4453 46.4426 62.9082 65.2137C62.503 65.5656 62.0668 65.8835 61.6462 66.2176L62.2143 58.0941C62.645 57.7879 63.1066 57.5157 63.5039 57.1709C88.2161 35.6346 112.924 14.095 137.626 -7.45105C138.064 -7.83399 138.44 -8.28788 138.844 -8.70952C141.544 -8.52074 144.245 -8.33185 146.945 -8.14307Z" fill="#231F20"/>
</g>
<mask id="mask13_0_7" style="mask-type:luminance" maskUnits="userSpaceOnUse" x="70" y="6" width="102" height="141">
<path fill-rule="evenodd" clip-rule="evenodd" d="M83.7509 6.20183L70.8458 15.3062L162.906 146.5L171.046 130.618L83.7509 6.20183Z" fill="white"/>
</mask>
<g mask="url(#mask13_0_7)">
<path fill-rule="evenodd" clip-rule="evenodd" d="M110.53 214.614C111.327 213.886 112.108 213.143 112.922 212.435C136.477 191.894 160.035 171.358 183.594 150.822C183.958 150.505 184.352 150.224 184.732 149.926C184.543 152.634 184.354 155.341 184.164 158.05C183.733 158.356 183.272 158.628 182.876 158.973C161.819 177.32 140.767 195.671 119.721 214.03C119.324 214.374 118.993 214.795 118.63 215.18L110.53 214.614Z" fill="#231F20"/>
</g>
<mask id="mask14_0_7" style="mask-type:luminance" maskUnits="userSpaceOnUse" x="70" y="6" width="102" height="141">
<path fill-rule="evenodd" clip-rule="evenodd" d="M83.7509 6.20183L70.8458 15.3062L162.906 146.5L171.046 130.618" fill="white"/>
</mask>
<g mask="url(#mask14_0_7)">
<path fill-rule="evenodd" clip-rule="evenodd" d="M130.744 -9.27588C130.518 -9.04629 130.307 -8.80197 130.066 -8.59011C107.898 10.7397 85.7266 30.0679 63.5526 49.3928C63.3113 49.6032 63.0392 49.7795 62.7826 49.9706L63.3507 41.8471C63.7396 41.5774 64.1595 41.3402 64.5165 41.0303C83.5728 24.4261 102.626 7.81719 121.673 -8.79831C122.03 -9.10963 122.321 -9.49221 122.643 -9.84233C125.343 -9.65355 128.044 -9.46466 130.744 -9.27588Z" fill="#231F20"/>
</g>
<mask id="mask15_0_7" style="mask-type:luminance" maskUnits="userSpaceOnUse" x="70" y="6" width="102" height="141">
<path fill-rule="evenodd" clip-rule="evenodd" d="M83.7509 6.20183L70.8458 15.3062L162.906 146.5L171.046 130.618" fill="white"/>
</mask>
<g mask="url(#mask15_0_7)">
<path fill-rule="evenodd" clip-rule="evenodd" d="M114.543 -10.4087C108.445 -5.06064 102.358 0.297194 96.2495 5.63235C85.8168 14.7399 75.373 23.8346 64.9306 32.9309C64.6072 33.2128 64.256 33.4609 63.919 33.7236L64.487 25.6001C64.8358 25.364 65.214 25.1617 65.5293 24.8868C78.8879 13.2511 92.2424 1.60907 105.593 -10.0393C105.908 -10.3142 106.16 -10.6616 106.442 -10.9751C109.142 -10.7864 111.843 -10.5975 114.543 -10.4087Z" fill="#231F20"/>
</g>
<mask id="mask16_0_7" style="mask-type:luminance" maskUnits="userSpaceOnUse" x="70" y="6" width="102" height="141">
<path fill-rule="evenodd" clip-rule="evenodd" d="M83.7509 6.20183L70.8458 15.3062L162.906 146.5L171.046 130.618" fill="white"/>
</mask>
<g mask="url(#mask16_0_7)">
<path fill-rule="evenodd" clip-rule="evenodd" d="M98.3418 -11.5415C94.157 -7.86081 89.9877 -4.16237 85.7847 -0.502639C78.8861 5.50286 71.965 11.4856 65.0553 17.4767L65.6232 9.35462C65.9317 9.15503 66.2695 8.99082 66.5445 8.75253C74.207 2.08244 81.8655 -4.594 89.5184 -11.2769C89.7919 -11.5153 90.0011 -11.8294 90.2412 -12.108C92.9409 -11.9192 95.6421 -11.7303 98.3418 -11.5415Z" fill="#231F20"/>
</g>
<path fill-rule="evenodd" clip-rule="evenodd" d="M163.513 147.768L196.791 194.203L151.29 171.134L163.513 147.768Z" fill="#231F20"/>
<path fill-rule="evenodd" clip-rule="evenodd" d="M220.736 199.972L171.983 130.486L185.947 103.309L252.671 137.769L220.736 199.972Z" fill="#231F20"/>
<path fill-rule="evenodd" clip-rule="evenodd" d="M84.0194 7.44255L72.3371 15.6819L163.307 145.29L170.672 130.922L84.0194 7.44255ZM70.2376 15.3153L84.3858 5.33747L172.431 130.8L163.508 148.205L162.791 147.183L70.2376 15.3153Z" fill="#231F20"/>
<path fill-rule="evenodd" clip-rule="evenodd" d="M251.542 242.798L219.981 198.31L217.314 203.442L193.98 191.501L237.381 252.677L251.542 242.798ZM217.967 205.46L220.18 201.196L249.437 242.434L237.745 250.591L198.753 195.63L217.967 205.46Z" fill="#231F20"/>
<path fill-rule="evenodd" clip-rule="evenodd" d="M216.804 49.5142C217.544 38.9239 209.521 29.7062 198.92 28.9648C188.318 28.2235 179.092 36.235 178.351 46.8254C177.611 57.4157 185.632 66.6333 196.234 67.3747C206.835 68.116 216.063 60.1046 216.804 49.5142ZM176.848 46.7203C177.647 35.3027 187.596 26.6644 199.025 27.4635C210.456 28.2629 219.105 38.2018 218.307 49.6193C217.508 61.0369 207.56 69.6754 196.129 68.876C184.7 68.0768 176.05 58.1378 176.848 46.7203Z" fill="#231F20"/>
<path fill-rule="evenodd" clip-rule="evenodd" d="M106.704 126.956L14.0998 112.155L110.516 198.793L106.704 126.956ZM9.29587 109.863L108.146 125.661L108.176 126.269L112.211 202.342L9.29587 109.863Z" fill="#231F20"/>
</g>
</svg>
